<svg width="16" height="16" viewBox="0 0 16 16" fill="none" xmlns="http://www.w3.org/2000/svg">
<rect x="14.666" y="1.33203" width="13.3333" height="13.3333" rx="6.66667" transform="rotate(90 14.666 1.33203)" fill="#CDD1D5"/>
<path d="M10.6239 4.62099C10.8321 4.41276 11.1695 4.41287 11.3778 4.62099C11.5861 4.82927 11.5861 5.16661 11.3778 5.37489L8.7538 7.99794L11.3768 10.621C11.5851 10.8293 11.5851 11.1666 11.3768 11.3749C11.1686 11.5832 10.8312 11.5832 10.6229 11.3749L7.99989 8.75185L5.37782 11.3749C5.16954 11.5831 4.83219 11.5832 4.62392 11.3749C4.41581 11.1666 4.41572 10.8292 4.62392 10.621L7.24599 7.99794L4.62294 5.37489C4.41479 5.1666 4.41471 4.82922 4.62294 4.62099C4.83118 4.41275 5.16856 4.41284 5.37685 4.62099L7.99989 7.24404L10.6239 4.62099Z" fill="#33363D"/>
</svg>
